<svg xmlns="http://www.w3.org/2000/svg" fill="none" viewBox="0 0 60 60"><circle cx="30" cy="30" r="26" fill="#65E2CA"/><path fill="#000" d="M18.287 1.887C10.14 4.053-7.816 19.915 3.803 42.81c5.094 12.135 13.78 19.309 28.17 16.63 16.431-3.028 30.516-15.839 27.581-32.981C57.512 14.324 45.188 0 31.784 0L18.288 1.887zm13.521 48.19C7.301 56.903-3.332 12.95 25.54 10.343c.32-.026.635-.089.94-.187.76.033 1.517-.12 2.206-.442 3.31-1.514 9.671 1.863 12.418 3.47a21.63 21.63 0 019.06 13.51c3.24 12.158-7.488 20.357-18.356 23.385z"/><path fill="#000" d="M33.028 19.216c-2.347 3.936-3.732 8.641-5.939 12.764a33.26 33.26 0 01-3.615-5.427c-2.84-5.287-10.939-.606-8.122 4.658s1.526 4.24 7.7 10.156a4.671 4.671 0 001.72 1.88 4.73 4.73 0 002.458.705c4.061 0 6.22-4.332 7.84-7.453 2.16-4.146 3.522-8.619 5.986-12.625 3.24-5.1-4.882-9.759-8.028-4.658z"/></svg>